<svg xmlns="http://www.w3.org/2000/svg" width="1200" height="820" viewBox="0 0 1200 820">
  <defs>
    <style>
      .box { fill: #ffffff; stroke: #1f2937; stroke-width: 1.5; rx: 12; }
      .title { font: 600 18px 'Arial', sans-serif; fill: #0f172a; }
      .label { font: 500 14px 'Arial', sans-serif; fill: #1f2937; }
      .sub { font: 400 12px 'Arial', sans-serif; fill: #475569; }
      .line { stroke: #64748b; stroke-width: 1.2; }
    </style>
  </defs>

  <rect x="20" y="20" width="1160" height="780" rx="18" fill="#f8fafc" stroke="#e2e8f0"/>
  <text x="40" y="50" class="title">Component Tree</text>

  <!-- App -->
  <rect class="box" x="520" y="80" width="160" height="50"/>
  <text x="560" y="110" class="label">App</text>

  <!-- Level 1 -->
  <rect class="box" x="80" y="180" width="200" height="45"/>
  <text x="115" y="208" class="label">Header</text>

  <rect class="box" x="330" y="180" width="220" height="45"/>
  <text x="370" y="208" class="label">Filters Bar</text>

  <rect class="box" x="610" y="180" width="220" height="45"/>
  <text x="650" y="208" class="label">Cards Grid</text>

  <rect class="box" x="880" y="180" width="240" height="45"/>
  <text x="910" y="208" class="label">Export Buttons</text>

  <rect class="box" x="880" y="260" width="240" height="45"/>
  <text x="905" y="288" class="label">Fullscreen Modal</text>

  <!-- Lines from App -->
  <line class="line" x1="600" y1="130" x2="180" y2="180"/>
  <line class="line" x1="600" y1="130" x2="440" y2="180"/>
  <line class="line" x1="600" y1="130" x2="720" y2="180"/>
  <line class="line" x1="600" y1="130" x2="1000" y2="180"/>
  <line class="line" x1="600" y1="130" x2="1000" y2="260"/>

  <!-- Header children -->
  <rect class="box" x="40" y="260" width="180" height="40"/>
  <text x="55" y="286" class="sub">UploadControl</text>

  <rect class="box" x="40" y="310" width="180" height="40"/>
  <text x="55" y="336" class="sub">ReportingPeriod</text>

  <rect class="box" x="40" y="360" width="180" height="40"/>
  <text x="55" y="386" class="sub">IntroPanels</text>

  <line class="line" x1="180" y1="225" x2="130" y2="260"/>
  <line class="line" x1="180" y1="225" x2="130" y2="330"/>
  <line class="line" x1="180" y1="225" x2="130" y2="380"/>

  <!-- Filters children -->
  <rect class="box" x="300" y="260" width="140" height="38"/>
  <text x="315" y="284" class="sub">Search</text>

  <rect class="box" x="300" y="305" width="140" height="38"/>
  <text x="315" y="329" class="sub">Sort</text>

  <rect class="box" x="300" y="350" width="140" height="38"/>
  <text x="315" y="374" class="sub">Anonymize</text>

  <rect class="box" x="300" y="395" width="200" height="38"/>
  <text x="315" y="419" class="sub">Select All / Clear</text>

  <line class="line" x1="440" y1="225" x2="370" y2="260"/>
  <line class="line" x1="440" y1="225" x2="370" y2="324"/>
  <line class="line" x1="440" y1="225" x2="370" y2="369"/>
  <line class="line" x1="440" y1="225" x2="400" y2="414"/>

  <!-- CardsGrid child -->
  <rect class="box" x="640" y="260" width="170" height="40"/>
  <text x="665" y="286" class="sub">ReportCard × N</text>
  <line class="line" x1="720" y1="225" x2="725" y2="260"/>

  <!-- ReportCard children -->
  <rect class="box" x="600" y="320" width="160" height="36"/>
  <text x="615" y="343" class="sub">Header</text>

  <rect class="box" x="600" y="360" width="160" height="36"/>
  <text x="615" y="383" class="sub">Scores</text>

  <rect class="box" x="600" y="400" width="160" height="36"/>
  <text x="615" y="423" class="sub">PeerComparison</text>

  <rect class="box" x="600" y="440" width="160" height="36"/>
  <text x="615" y="463" class="sub">Badges</text>

  <rect class="box" x="600" y="480" width="160" height="36"/>
  <text x="615" y="503" class="sub">Charts</text>

  <rect class="box" x="600" y="520" width="160" height="36"/>
  <text x="615" y="543" class="sub">CoachingSummary</text>

  <line class="line" x1="725" y1="300" x2="680" y2="320"/>
  <line class="line" x1="725" y1="300" x2="680" y2="380"/>
  <line class="line" x1="725" y1="300" x2="680" y2="420"/>
  <line class="line" x1="725" y1="300" x2="680" y2="460"/>
  <line class="line" x1="725" y1="300" x2="680" y2="500"/>
  <line class="line" x1="725" y1="300" x2="680" y2="540"/>
</svg>
