<?xml version="1.0" encoding="UTF-8"?>
<svg xmlns="http://www.w3.org/2000/svg" width="512" height="512" viewBox="0 0 512 512">
  <rect width="512" height="512" rx="61.44" fill="#0E2A3A"/>
  <circle cx="256.0" cy="256.0" r="200.0" fill="none" stroke="#FFFFFF" stroke-width="22" />
  <circle cx="256.0" cy="256.0" r="170.3" fill="none" stroke="#FFFFFF" stroke-width="14.3" opacity="0.55"/>
  <path d="M 170.1688 189.83845 H 234.54219999999995 C 254.21184999999997 189.83845 273.88149999999996 209.50809999999998 273.88149999999996 229.17775 V 261.36445000000003 C 273.88149999999996 281.0341 254.21184999999997 300.70375 234.54219999999995 300.70375 H 170.1688 C 150.49915 300.70375 130.8295 281.0341 130.8295 261.36445000000003 V 229.17775 C 130.8295 209.50809999999998 150.49915 189.83845 170.1688 189.83845 Z" fill="none" stroke="#FFFFFF" stroke-width="16.5" stroke-linecap="round" stroke-linejoin="round"/>
  <path d="M 277.45779999999996 211.29625000000001 H 341.83119999999997 C 361.50084999999996 211.29625000000001 381.17049999999995 230.9659 381.17049999999995 250.63555000000002 V 282.82225000000005 C 381.17049999999995 302.49190000000004 361.50084999999996 322.16155000000003 341.83119999999997 322.16155000000003 H 277.45779999999996 C 257.78815 322.16155000000003 238.11849999999998 302.49190000000004 238.11849999999998 282.82225000000005 V 250.63555000000002 C 238.11849999999998 230.9659 257.78815 211.29625000000001 277.45779999999996 211.29625000000001 Z" fill="none" stroke="#FFFFFF" stroke-width="16.5" stroke-linecap="round" stroke-linejoin="round"/>
  <path d="M 232.75405 256.0 H 279.24595" fill="none" stroke="#FFFFFF" stroke-width="13.2" stroke-linecap="round" opacity="0.85"/>
</svg>